<svg id="Layer_1" data-name="Layer 1" xmlns="http://www.w3.org/2000/svg" viewBox="0 0 32.58 31.77"><defs><style>.cls-1{fill:#fff;fill-rule:evenodd;}</style></defs><path class="cls-1" d="M16.71.84a16.29,16.29,0,0,0-5.15,31.75c.82.15,1.11-.36,1.11-.79s0-1.41,0-2.77c-4.53,1-5.48-2.18-5.48-2.18a4.35,4.35,0,0,0-1.81-2.38c-1.48-1,.11-1,.11-1A3.4,3.4,0,0,1,8,25.15a3.47,3.47,0,0,0,4.74,1.36,3.49,3.49,0,0,1,1-2.18c-3.62-.41-7.42-1.81-7.42-8A6.26,6.26,0,0,1,8,11.91,5.82,5.82,0,0,1,8.16,7.6s1.36-.44,4.47,1.67a15.41,15.41,0,0,1,8.16,0C23.9,7.16,25.27,7.6,25.27,7.6a5.88,5.88,0,0,1,.16,4.31,6.3,6.3,0,0,1,1.67,4.37c0,6.26-3.81,7.63-7.44,8a3.86,3.86,0,0,1,1.11,3c0,2.18,0,3.94,0,4.47s.29.95,1.12.79A16.3,16.3,0,0,0,16.71.84Z" transform="translate(-0.42 -0.84)"/></svg>