<?xml version="1.0" encoding="UTF-8"?>
<svg id="Layer_1" data-name="Layer 1" xmlns="http://www.w3.org/2000/svg" viewBox="0 0 173.2 150">
  <defs>
    <style>
      .cls-1 {
        fill: hsl(0,0%,23%);
        stroke: hsl(0,0%,23%);
        stroke-miterlimit: 10;
        stroke-width: 5px;
      }
    </style>
  </defs>
  <path class="cls-1" d="M129.9,47.7h0s-41.3-23.85-41.3-23.85h0s-2-1.16-2-1.16l-2,1.15h0s-41.3,23.85-41.3,23.85h0s-2,1.16-2,1.16v52.31l2,1.15,41.3,23.85,2,1.15,2-1.15,41.3-23.85,2-1.15v-52.31l-2-1.15ZM45.3,98.85v-47.69l41.3-23.85,41.3,23.85v47.69l-41.3,23.84-41.3-23.84Z"/>
  <path class="cls-1" d="M43.3,47.7h0S2,23.85,2,23.85h0s-2-1.16-2-1.16v4.62l41.3,23.85v47.69L0,122.69v4.62l2-1.15,41.3-23.85,2-1.15v-52.31l-2-1.15Z"/>
  <path class="cls-1" d="M131.9,51.16l41.3-23.85v-4.62l-2,1.15h0s-41.3,23.85-41.3,23.85h0s-2,1.16-2,1.16v52.31l2,1.15,41.3,23.85,2,1.15v-4.62l-41.3-23.84v-47.69Z"/>
  <polygon class="cls-1" points="173.2 0 173.2 27.31 131.9 51.16 129.9 52.31 127.9 51.16 86.6 27.31 84.6 26.16 84.6 0 88.6 0 88.6 23.85 129.9 47.69 171.2 23.85 171.2 0 173.2 0"/>
  <polygon class="cls-1" points="88.6 0 88.6 26.16 86.6 27.31 45.3 51.16 43.3 52.31 41.3 51.16 0 27.31 0 0 2 0 2 23.85 43.3 47.69 84.6 23.85 84.6 0 88.6 0"/>
  <polygon class="cls-1" points="88.6 123.85 88.6 150 84.6 150 84.6 126.16 43.3 102.31 2 126.16 2 150 0 150 0 122.69 41.3 98.85 41.3 98.84 43.3 97.69 45.3 98.84 45.3 98.85 86.6 122.69 86.6 122.7 88.6 123.85"/>
  <polygon class="cls-1" points="173.2 122.69 173.2 150 171.2 150 171.2 126.16 129.9 102.31 88.6 126.16 88.6 150 84.6 150 84.6 123.85 86.6 122.7 86.6 122.69 127.9 98.85 127.9 98.84 129.9 97.69 131.9 98.84 131.9 98.85 173.2 122.69"/>
</svg>