<?xml version="1.0" encoding="UTF-8" standalone="no"?>
<svg
   width="20"
   height="20.000212"
   version="1.1"
   id="svg28"
   sodipodi:docname="instagram.svg"
   inkscape:version="1.2 (dc2aedaf03, 2022-05-15)"
   xmlns:inkscape="http://www.inkscape.org/namespaces/inkscape"
   xmlns:sodipodi="http://sodipodi.sourceforge.net/DTD/sodipodi-0.dtd"
   xmlns:xlink="http://www.w3.org/1999/xlink"
   xmlns="http://www.w3.org/2000/svg"
   xmlns:svg="http://www.w3.org/2000/svg">
  <sodipodi:namedview
     id="namedview30"
     pagecolor="#505050"
     bordercolor="#eeeeee"
     borderopacity="1"
     inkscape:pageshadow="0"
     inkscape:pageopacity="0"
     inkscape:pagecheckerboard="0"
     showgrid="false"
     inkscape:zoom="8.9138308"
     inkscape:cx="-24.96121"
     inkscape:cy="10.433225"
     inkscape:window-width="1920"
     inkscape:window-height="1017"
     inkscape:window-x="-8"
     inkscape:window-y="-8"
     inkscape:window-maximized="1"
     inkscape:current-layer="svg28"
     inkscape:showpageshadow="2"
     inkscape:deskcolor="#505050" />
  <defs
     id="defs20">
    <linearGradient
       id="b">
      <stop
         offset="0"
         stop-color="#3771c8"
         id="stop2" />
      <stop
         stop-color="#3771c8"
         offset=".128"
         id="stop4" />
      <stop
         offset="1"
         stop-color="#60f"
         stop-opacity="0"
         id="stop6" />
    </linearGradient>
    <linearGradient
       id="a">
      <stop
         offset="0"
         stop-color="#fd5"
         id="stop9" />
      <stop
         offset=".1"
         stop-color="#fd5"
         id="stop11" />
      <stop
         offset=".5"
         stop-color="#ff543e"
         id="stop13" />
      <stop
         offset="1"
         stop-color="#c837ab"
         id="stop15" />
    </linearGradient>
    <radialGradient
       id="c"
       cx="158.429"
       cy="578.08801"
       r="65"
       xlink:href="#a"
       gradientUnits="userSpaceOnUse"
       gradientTransform="matrix(0,-1.98198,1.8439,0,-1031.402,454.004)"
       fx="158.429"
       fy="578.08801" />
    <radialGradient
       id="d"
       cx="147.694"
       cy="473.45499"
       r="65"
       xlink:href="#b"
       gradientUnits="userSpaceOnUse"
       gradientTransform="matrix(0.17394,0.86872,-3.5818,0.71718,1648.348,-458.493)"
       fx="147.694"
       fy="473.45499" />
  </defs>
  <path
     fill="#ffffff"
     d="M 10.000938,0 C 7.2850759,0 6.944239,0.01187512 5.8775612,0.0604173 4.8129668,0.1091678 4.0862926,0.27771123 3.4504526,0.52500547 2.7927374,0.7804248 2.2348149,1.122095 1.6789758,1.6781425 1.12272,2.2339816 0.7810498,2.7919041 0.52479713,3.4494109 0.27687788,4.0854592 0.10812613,4.8123418 0.06020896,5.8765195 0.01250013,6.9431973 0,7.2842425 0,10.000104 c 0,2.715862 0.01208346,3.055657 0.0604173,4.122335 0.04895884,1.064594 0.21750226,1.791268 0.46458817,2.427108 0.25562766,0.657716 0.59729793,1.215638 1.15334533,1.771477 0.5556308,0.556256 1.1135533,0.89876 1.7708518,1.154179 0.6362566,0.247294 1.3631392,0.415838 2.4275253,0.464588 1.0666778,0.04854 1.4073063,0.06042 4.1229596,0.06042 2.7160695,0 3.0558655,-0.01187 4.1225425,-0.06042 1.064595,-0.04875 1.792102,-0.217294 2.428359,-0.464588 0.657507,-0.255419 1.214596,-0.597923 1.770227,-1.154179 0.556256,-0.555839 0.897926,-1.113761 1.154179,-1.771268 0.245835,-0.636049 0.414587,-1.362931 0.464588,-2.427109 C 19.9875,13.055969 20,12.715966 20,10.000104 20,7.2842425 19.9875,6.9434057 19.939583,5.8767279 19.889582,4.8121335 19.72083,4.0854592 19.474995,3.4496193 19.218742,2.7919041 18.877072,2.2339816 18.320816,1.6781425 17.76456,1.1218867 17.208304,0.78021646 16.549964,0.52500547 15.912457,0.27771123 15.185367,0.1091678 14.120772,0.0604173 13.054094,0.01187512 12.714507,0 9.9978125,0 Z M 9.1038448,1.8021021 c 0.2662528,-4.167e-4 0.5633392,0 0.8970932,0 2.670027,0 2.986489,0.00958 4.040875,0.057501 0.97501,0.044584 1.504182,0.2075022 1.856686,0.3443786 0.466671,0.1812519 0.799383,0.3979208 1.149179,0.7479244 0.350003,0.3500037 0.566672,0.6833405 0.748341,1.150012 0.136876,0.352087 0.300003,0.8812592 0.344378,1.8562694 0.04792,1.0541776 0.05833,1.3708476 0.05833,4.0396254 0,2.6687771 -0.01042,2.9854471 -0.05833,4.0396251 -0.04458,0.97501 -0.207502,1.504182 -0.344378,1.856269 -0.181252,0.466672 -0.398338,0.798967 -0.748341,1.148762 -0.350004,0.350004 -0.682299,0.566673 -1.149179,0.747925 -0.352087,0.137501 -0.881676,0.300003 -1.856686,0.344587 -1.054178,0.04792 -1.370848,0.05833 -4.040875,0.05833 -2.6702366,0 -2.9866983,-0.01042 -4.0408759,-0.05833 C 4.9850519,18.08998 4.4558797,17.927062 4.1031677,17.790185 3.6364962,17.608933 3.3031594,17.392265 2.9531558,17.042261 2.6031521,16.692257 2.3864832,16.359754 2.2048146,15.892874 2.0679382,15.540787 1.9048115,15.011615 1.860436,14.036605 1.8125189,12.982427 1.8029354,12.665757 1.8029354,9.9953125 c 0,-2.6704445 0.00958,-2.9854478 0.057501,-4.0396255 C 1.9050198,4.9806769 2.0679382,4.4515047 2.2048146,4.099001 2.3860665,3.6323295 2.6031521,3.2989927 2.9531558,2.9489891 3.3031594,2.5989854 3.6364962,2.3823165 4.1031677,2.2006479 4.4556714,2.0631465 4.9850519,1.9006448 5.9600621,1.8558527 6.8825717,1.8141856 7.2400754,1.8016854 9.1038448,1.7996021 Z m 6.2350652,1.660434 c -0.662507,0 -1.200013,0.5368806 -1.200013,1.1995958 0,0.6625069 0.537506,1.2000125 1.200013,1.2000125 0.662507,0 1.200012,-0.5375056 1.200012,-1.2000125 0,-0.6625069 -0.537505,-1.2000125 -1.200012,-1.2000125 z M 10.000938,4.864634 c -2.8360717,0 -5.1354707,2.299399 -5.1354707,5.13547 0,2.836071 2.299399,5.134429 5.1354707,5.134429 2.836071,0 5.134636,-2.298358 5.134636,-5.134429 0,-2.836071 -2.298774,-5.13547 -5.134845,-5.13547 z m 0,1.8021021 c 1.840852,0 3.333368,1.4923072 3.333368,3.3333679 0,1.840853 -1.492516,3.333368 -3.333368,3.333368 -1.8410613,0 -3.3333685,-1.492515 -3.3333685,-3.333368 0,-1.8410607 1.4923072,-3.3333679 3.3333685,-3.3333679 z"
     id="path26"
     style="fill:#ffffff;fill-opacity:1;stroke-width:0.208336" />
</svg>