<?xml version="1.0" standalone="no"?>
<svg xmlns:xlink="http://www.w3.org/1999/xlink" id="wave" style="transform:rotate(0deg); transition: 0.3s" viewBox="0 0 1440 140" version="1.1" xmlns="http://www.w3.org/2000/svg"><defs><linearGradient id="sw-gradient-0" x1="0" x2="0" y1="1" y2="0"><stop stop-color="rgba(0, 204, 255, 1)" offset="0%"/><stop stop-color="rgba(102, 224, 255, 1)" offset="100%"/></linearGradient></defs><path style="transform:translate(0, 0px); opacity:1" fill="url(#sw-gradient-0)" d="M0,14L11.4,11.7C22.9,9,46,5,69,18.7C91.4,33,114,65,137,72.3C160,79,183,61,206,44.3C228.6,28,251,14,274,14C297.1,14,320,28,343,46.7C365.7,65,389,89,411,81.7C434.3,75,457,37,480,30.3C502.9,23,526,47,549,63C571.4,79,594,89,617,77C640,65,663,33,686,37.3C708.6,42,731,84,754,102.7C777.1,121,800,117,823,112C845.7,107,869,103,891,88.7C914.3,75,937,51,960,35C982.9,19,1006,9,1029,18.7C1051.4,28,1074,56,1097,67.7C1120,79,1143,75,1166,72.3C1188.6,70,1211,70,1234,60.7C1257.1,51,1280,33,1303,39.7C1325.7,47,1349,79,1371,79.3C1394.3,79,1417,47,1440,30.3C1462.9,14,1486,14,1509,30.3C1531.4,47,1554,79,1577,95.7C1600,112,1623,112,1634,112L1645.7,112L1645.7,140L1634.3,140C1622.9,140,1600,140,1577,140C1554.3,140,1531,140,1509,140C1485.7,140,1463,140,1440,140C1417.1,140,1394,140,1371,140C1348.6,140,1326,140,1303,140C1280,140,1257,140,1234,140C1211.4,140,1189,140,1166,140C1142.9,140,1120,140,1097,140C1074.3,140,1051,140,1029,140C1005.7,140,983,140,960,140C937.1,140,914,140,891,140C868.6,140,846,140,823,140C800,140,777,140,754,140C731.4,140,709,140,686,140C662.9,140,640,140,617,140C594.3,140,571,140,549,140C525.7,140,503,140,480,140C457.1,140,434,140,411,140C388.6,140,366,140,343,140C320,140,297,140,274,140C251.4,140,229,140,206,140C182.9,140,160,140,137,140C114.3,140,91,140,69,140C45.7,140,23,140,11,140L0,140Z"/></svg>