<?xml version="1.0" standalone="no"?>
<svg xmlns:xlink="http://www.w3.org/1999/xlink" id="wave" style="transform:rotate(0deg); transition: 0.3s" viewBox="0 0 1440 140" version="1.1" xmlns="http://www.w3.org/2000/svg"><defs><linearGradient id="sw-gradient-0" x1="0" x2="0" y1="1" y2="0"><stop stop-color="rgba(0, 204, 255, 1)" offset="0%"/><stop stop-color="rgba(102, 224, 255, 1)" offset="100%"/></linearGradient></defs><path style="transform:translate(0, 0px); opacity:1" fill="url(#sw-gradient-0)" d="M0,126L11.4,116.7C22.9,107,46,89,69,79.3C91.4,70,114,70,137,79.3C160,89,183,107,206,100.3C228.6,93,251,61,274,53.7C297.1,47,320,65,343,79.3C365.7,93,389,103,411,102.7C434.3,103,457,93,480,79.3C502.9,65,526,47,549,42C571.4,37,594,47,617,60.7C640,75,663,93,686,91C708.6,89,731,65,754,56C777.1,47,800,51,823,44.3C845.7,37,869,19,891,28C914.3,37,937,75,960,77C982.9,79,1006,47,1029,44.3C1051.4,42,1074,70,1097,86.3C1120,103,1143,107,1166,109.7C1188.6,112,1211,112,1234,105C1257.1,98,1280,84,1303,74.7C1325.7,65,1349,61,1371,63C1394.3,65,1417,75,1440,81.7C1462.9,89,1486,93,1509,95.7C1531.4,98,1554,98,1577,95.7C1600,93,1623,89,1634,86.3L1645.7,84L1645.7,140L1634.3,140C1622.9,140,1600,140,1577,140C1554.3,140,1531,140,1509,140C1485.7,140,1463,140,1440,140C1417.1,140,1394,140,1371,140C1348.6,140,1326,140,1303,140C1280,140,1257,140,1234,140C1211.4,140,1189,140,1166,140C1142.9,140,1120,140,1097,140C1074.3,140,1051,140,1029,140C1005.7,140,983,140,960,140C937.1,140,914,140,891,140C868.6,140,846,140,823,140C800,140,777,140,754,140C731.4,140,709,140,686,140C662.9,140,640,140,617,140C594.3,140,571,140,549,140C525.7,140,503,140,480,140C457.1,140,434,140,411,140C388.6,140,366,140,343,140C320,140,297,140,274,140C251.4,140,229,140,206,140C182.9,140,160,140,137,140C114.3,140,91,140,69,140C45.7,140,23,140,11,140L0,140Z"/></svg>