<?xml version="1.0" standalone="no"?>
<svg xmlns:xlink="http://www.w3.org/1999/xlink" id="wave" style="transform:rotate(0deg); transition: 0.3s" viewBox="0 0 1440 140" version="1.1" xmlns="http://www.w3.org/2000/svg"><defs><linearGradient id="sw-gradient-0" x1="0" x2="0" y1="1" y2="0"><stop stop-color="rgba(0, 204, 255, 1)" offset="0%"/><stop stop-color="rgba(102, 224, 255, 1)" offset="100%"/></linearGradient></defs><path style="transform:translate(0, 0px); opacity:1" fill="url(#sw-gradient-0)" d="M0,14L11.4,18.7C22.9,23,46,33,69,51.3C91.4,70,114,98,137,105C160,112,183,98,206,88.7C228.6,79,251,75,274,79.3C297.1,84,320,98,343,102.7C365.7,107,389,103,411,93.3C434.3,84,457,70,480,67.7C502.9,65,526,75,549,86.3C571.4,98,594,112,617,116.7C640,121,663,117,686,100.3C708.6,84,731,56,754,51.3C777.1,47,800,65,823,72.3C845.7,79,869,75,891,63C914.3,51,937,33,960,32.7C982.9,33,1006,51,1029,65.3C1051.4,79,1074,89,1097,84C1120,79,1143,61,1166,53.7C1188.6,47,1211,51,1234,63C1257.1,75,1280,93,1303,91C1325.7,89,1349,65,1371,46.7C1394.3,28,1417,14,1440,16.3C1462.9,19,1486,37,1509,44.3C1531.4,51,1554,47,1577,42C1600,37,1623,33,1634,30.3L1645.7,28L1645.7,140L1634.3,140C1622.9,140,1600,140,1577,140C1554.3,140,1531,140,1509,140C1485.7,140,1463,140,1440,140C1417.1,140,1394,140,1371,140C1348.6,140,1326,140,1303,140C1280,140,1257,140,1234,140C1211.4,140,1189,140,1166,140C1142.9,140,1120,140,1097,140C1074.3,140,1051,140,1029,140C1005.7,140,983,140,960,140C937.1,140,914,140,891,140C868.6,140,846,140,823,140C800,140,777,140,754,140C731.4,140,709,140,686,140C662.9,140,640,140,617,140C594.3,140,571,140,549,140C525.7,140,503,140,480,140C457.1,140,434,140,411,140C388.6,140,366,140,343,140C320,140,297,140,274,140C251.4,140,229,140,206,140C182.9,140,160,140,137,140C114.3,140,91,140,69,140C45.7,140,23,140,11,140L0,140Z"/></svg>